Coordinates
version=1
nRows=60
nColumns=12
inDegrees=yes

Units are S.I. units (second, meters, Newtons, ...)
Angles are in degrees

endheader
time	SC_y	SC_z	SC_x	AC_y	AC_z	AC_x	GH_y	GH_z	GH_yy	EL_x	PS_y
       0.0              -24.39          28.68          14.28          64.11         -18.84          5.681         -116.0         -17.29          55.65          8.598          129.9
   0.04066              -24.39          28.68          14.29          64.11         -18.83          5.682         -116.0         -17.28          55.66          8.616          129.9
   0.08133              -24.39          28.68           14.3          64.11         -18.83          5.684         -116.0         -17.28          55.67          8.635          129.9
     0.122              -24.39          28.68          14.31           64.1         -18.83          5.686         -116.0         -17.28          55.67          8.656          129.9
    0.1627              -24.39          28.68          14.32           64.1         -18.83          5.689         -116.0         -17.28          55.68          8.678          129.9
    0.2033              -24.39          28.68          14.33           64.1         -18.82          5.691         -116.0         -17.27          55.69          8.701          129.9
     0.244              -24.39          28.68          14.34          64.09         -18.82          5.693         -116.0         -17.27          55.69          8.726          129.9
    0.2846              -24.39          28.68          14.36          64.09         -18.82          5.696         -116.0         -17.27           55.7          8.753          129.9
    0.3253              -24.39          28.68          14.37          64.08         -18.81          5.699         -116.0         -17.26          55.71          8.781          129.9
     0.366              -24.39          28.68          14.39          64.08         -18.81          5.702         -116.0         -17.26          55.72          8.812          129.9
    0.4066              -24.39          28.68           14.4          64.07         -18.81          5.705         -116.0         -17.25          55.73          8.845          129.9
    0.4473              -24.39          28.67          14.42          64.07          -18.8          5.709         -116.0         -17.25          55.74           8.88          129.9
     0.488              -24.39          28.67          14.44          64.06          -18.8          5.713         -116.0         -17.24          55.75          8.919          129.9
    0.5286              -24.39          28.67          14.46          64.06         -18.79          5.717         -116.0         -17.24          55.77           8.96          129.9
    0.5693              -24.39          28.67          14.48          64.05         -18.79          5.721         -116.0         -17.23          55.78          9.005          129.9
      0.61              -24.39          28.67          14.51          64.04         -18.78          5.726         -116.0         -17.23           55.8          9.053          129.9
    0.6506              -24.39          28.67          14.53          64.03         -18.78          5.731         -116.0         -17.22          55.81          9.106          129.9
    0.6913              -24.39          28.67          14.56          64.02         -18.77          5.737         -116.0         -17.21          55.83          9.163          129.9
     0.732              -24.39          28.67          14.59          64.01         -18.76          5.743         -116.0          -17.2          55.85          9.226          130.0
    0.7726              -24.39          28.67          14.62           64.0         -18.75           5.75         -116.0         -17.19          55.87          9.294          130.0
    0.8133              -24.39          28.67          14.66          63.99         -18.74          5.757         -116.0         -17.18           55.9          9.369          130.0
    0.8539              -24.39          28.67           14.7          63.98         -18.73          5.766         -116.0         -17.17          55.92          9.452          130.0
    0.8946              -24.39          28.67          14.75          63.96         -18.72          5.775         -116.0         -17.16          55.95          9.544          130.0
    0.9353              -24.39          28.67           14.8          63.95         -18.71          5.785         -116.0         -17.15          55.98          9.645          130.0
    0.9759              -24.39          28.67          14.85          63.93          -18.7          5.796         -116.0         -17.13          56.02          9.758          130.0
     1.017              -24.39          28.67          14.91          63.91         -18.68          5.809         -116.0         -17.12          56.06          9.884          130.0
     1.057              -24.39          28.67          14.98          63.89         -18.67          5.823         -116.0          -17.1           56.1          10.02          130.0
     1.098              -24.39          28.67          15.06          63.86         -18.65          5.838         -116.0         -17.08          56.15          10.18          130.0
     1.139              -24.39          28.67          15.15          63.84         -18.63          5.856         -116.0         -17.05          56.21          10.36          130.1
     1.179              -24.39          28.66          15.25           63.8          -18.6          5.876         -116.0         -17.03          56.27          10.57          130.1
      1.22              -24.39          28.66          15.36          63.77         -18.58          5.899         -116.0          -17.0          56.34           10.8          130.1
     1.261              -24.39          28.66          15.49          63.72         -18.55          5.926         -116.0         -16.96          56.43          11.06          130.1
     1.301              -24.38          28.66          15.65          63.68         -18.51          5.957         -115.9         -16.92          56.52          11.37          130.2
     1.342              -24.38          28.66          15.82          63.62         -18.47          5.992         -115.9         -16.88          56.64          11.73          130.2
     1.383              -24.38          28.65          16.03          63.55         -18.42          6.034         -115.9         -16.82          56.77          12.15          130.2
     1.423              -24.38          28.65          16.27          63.48         -18.36          6.083         -115.9         -16.76          56.92          12.64          130.3
     1.464              -24.38          28.65          16.56          63.38         -18.29          6.141         -115.9         -16.68          57.11          13.23          130.3
     1.505              -24.38          28.64           16.9          63.27         -18.21          6.211         -115.9         -16.59          57.33          13.93          130.4
     1.545              -24.37          28.64          17.32          63.14         -18.11          6.295         -115.9         -16.48          57.59          14.78          130.5
     1.586              -24.37          28.63          17.83          62.98         -17.99          6.399         -115.9         -16.34          57.92          15.81          130.6
     1.627              -24.36          28.62          18.46          62.77         -17.84          6.526         -115.9         -16.17          58.32           17.1          130.7
     1.667              -24.36          28.61          19.25          62.52         -17.65          6.685         -115.9         -15.96          58.82          18.69          130.9
     1.708              -24.35           28.6          20.24           62.2         -17.41          6.885         -115.9          -15.7          59.45           20.7          131.1
     1.749              -24.34          28.58           21.5           61.8         -17.11          7.139         -115.9         -15.36          60.25          23.26          131.3
     1.789              -24.33          28.56          23.11          61.28         -16.73          7.465         -115.9         -14.93          61.28          26.53          131.6
      1.83              -24.32          28.53          25.17          60.62         -16.23          7.883         -115.9         -14.38           62.6          30.74          132.0
     1.871               -24.3           28.5          27.81          59.77          -15.6          8.417         -115.9         -13.68          64.28           36.1          132.6
     1.911              -24.28          28.46          31.13          58.71         -14.81          9.088         -115.9         -12.79           66.4          42.85          133.2
     1.952              -24.25           28.4          35.18          57.41         -13.85          9.906         -115.9         -11.71          68.97          51.07          134.0
     1.993              -24.21          28.34          39.87          55.91         -12.73          10.85         -115.9         -10.46          71.96           60.6          134.9
     2.033              -24.18          28.28          44.94          54.28         -11.51          11.88         -115.9         -9.108           75.2          70.92          135.9
     2.074              -24.14          28.21          50.02          52.65          -10.3          12.91         -115.9         -7.754          78.44          81.24          136.9
     2.115              -24.11          28.15          54.71          51.15         -9.181          13.86         -115.8         -6.503          81.43          90.77          137.8
     2.155              -24.08          28.09          58.75          49.85         -8.215          14.67         -115.8         -5.424           84.0          98.99          138.6
     2.196              -24.06          28.05          62.07          48.79         -7.423          15.34         -115.8         -4.539          86.12          105.7          139.3
     2.237              -24.04          28.02          64.71          47.94         -6.792          15.88         -115.8         -3.835           87.8          111.1          139.8
     2.277              -24.02          27.99          66.78          47.28         -6.299           16.3         -115.8         -3.284          89.12          115.3          140.2
     2.318              -24.01          27.97          68.39          46.76         -5.914          16.62         -115.8         -2.854          90.15          118.6          140.5
     2.359               -24.0          27.95          69.65          46.36         -5.614          16.88         -115.8         -2.519          90.95          121.1          140.8
     2.399               -24.0          27.94          70.64          46.04         -5.378          17.08         -115.8         -2.255          91.58          123.1          141.0
